<?xml version="1.0" encoding="UTF-8" standalone="no"?>
<!DOCTYPE svg PUBLIC "-//W3C//DTD SVG 1.1//EN" "http://www.w3.org/Graphics/SVG/1.1/DTD/svg11.dtd">
<svg width="100%" height="100%" viewBox="0 0 512 512" version="1.1" xmlns="http://www.w3.org/2000/svg" xmlns:xlink="http://www.w3.org/1999/xlink" xml:space="preserve" xmlns:serif="http://www.serif.com/" style="fill-rule:evenodd;clip-rule:evenodd;stroke-linecap:round;stroke-linejoin:round;stroke-miterlimit:1.5;">
    <g transform="matrix(0.999998,0,0,0.999998,-0.610659,-1.6602)">
        <g transform="matrix(1,0,0,10,0,-3891.07)">
            <ellipse cx="256.672" cy="431.706" rx="248.273" ry="7.727" style="fill:rgb(250,250,250);"/>
        </g>
        <path d="M350.389,128.923L315.557,281.152L328.282,225.54L401.132,417.471C401.132,417.471 248.903,457.893 112.584,416.61C136.236,301.793 161.177,180.526 161.177,180.526C161.177,180.526 281.011,45.713 308.246,16.256C314.881,9.08 329.441,8.56 337.488,14.106C358.703,28.727 431.377,77.463 448.435,88.5C458.262,97.642 452.642,111.694 439.834,111.292C418.261,109.07 356.709,100.056 356.709,100.056" style="fill:rgb(250,250,250);"/>
        <path d="M375.222,345.284C287.051,369.095 215.39,373.932 126.898,348.724C124.755,357.919 117.044,398.429 112.584,417.434C186.65,436.97 286.017,446.332 402.036,416.402C389.392,387.161 384.943,374.11 375.222,345.284Z" style="fill:rgb(252,165,165);"/>
    </g>
    <g transform="matrix(0.999998,0,0,0.999998,-0.610659,-1.6602)">
        <path d="M350.389,128.923L315.557,281.152L328.282,225.54L401.132,417.471C401.132,417.471 248.903,457.893 112.584,416.61C136.236,301.793 161.177,180.526 161.177,180.526C161.177,180.526 281.011,45.713 308.246,16.256C314.881,9.08 329.441,8.56 337.488,14.106C358.703,28.727 431.377,77.463 448.435,88.5C458.262,97.642 452.642,111.694 439.834,111.292C418.261,109.07 316.417,93.231 316.417,93.231" style="fill:none;stroke:rgb(24,24,27);stroke-width:9.82px;"/>
        <g transform="matrix(1,0,0,10,0,-3891.07)">
            <path d="M418.543,425.865C473.911,427.283 504.945,429.303 504.945,431.706C504.945,435.971 393.697,439.433 256.672,439.433C119.646,439.433 8.399,435.971 8.399,431.706C8.399,429.389 36.5,427.481 88.46,426.065" style="fill:none;stroke:rgb(24,24,27);stroke-width:1.38px;"/>
        </g>
        <path d="M126.898,348.724C181.842,369.147 284.815,371.274 338.603,354.762" style="fill:none;stroke:rgb(24,24,27);stroke-width:9.82px;"/>
    </g>
</svg>
